<?xml version="1.0" encoding="iso-8859-1"?>
<!-- Uploaded to: SVG Repo, www.svgrepo.com, Generator: SVG Repo Mixer Tools -->
<svg height="800px" width="800px" version="1.1" id="Layer_1" xmlns="http://www.w3.org/2000/svg" xmlns:xlink="http://www.w3.org/1999/xlink" 
	 viewBox="0 0 392.533 392.533" xml:space="preserve">
<path style="fill:#FFFFFF;" d="M21.786,185.918c0,29.35,23.855,53.333,53.333,53.333h19.135
	c4.655-47.774,44.865-85.139,93.802-85.139s89.277,37.495,93.802,85.139h35.491c29.35,0,53.333-23.855,53.333-53.333
	s-23.855-53.333-53.333-53.333c-5.56,0-11.119,0.905-16.485,2.651c-8.404,2.263-14.545-4.267-14.287-10.602
	c0.905-59.733-46.352-102.529-100.331-102.788c-28.897-0.84-57.794,13.511-77.059,36.784h23.273c6.012,0,10.925,4.848,10.925,10.925
	s-4.848,10.925-10.925,10.925H95.289c-2.844,6.077-5.172,12.606-6.723,19.394h19.265c6.012,0,10.925,4.848,10.925,10.925
	c0,6.012-4.848,10.925-10.925,10.925H85.98v0.065c0,6.012-4.848,10.796-10.925,10.796C45.77,132.584,21.786,156.568,21.786,185.918z
	"/>
<path style="fill:#56ACE0;" d="M317.414,154.37c-3.232,0-6.594,0.517-9.762,1.551l-3.297,1.099
	c-19.782,6.465-40.081-8.598-39.564-29.414l0.065-3.491c0.517-21.721-7.628-42.085-22.885-57.406
	c-14.869-14.869-34.521-23.014-55.531-23.014s-40.727,8.21-55.531,23.014c-14.739,14.739-22.885,34.327-22.949,55.143v2.457
	c-0.065,16.614-13.576,30.061-30.19,30.061h-2.069c-17.261,0-31.741,13.64-32.065,30.901C43.313,202.92,57.6,217.4,75.184,217.4
	h29.673h166.659h45.446c17.261,0,31.741-13.64,32.065-30.901C349.285,168.851,334.998,154.37,317.414,154.37z"/>
<path style="fill:#FFC10D;" d="M261.236,307.776c-4.073,5.042-8.663,9.568-13.705,13.705l46.545,46.545
	c3.814,3.814,9.956,3.814,13.705,0c3.814-3.814,3.814-9.956,0-13.705L261.236,307.776z"/>
<path style="fill:#194F82;" d="M317.414,261.037c41.438,0,75.119-33.681,75.119-75.119s-33.681-75.119-75.119-75.119
	c-3.168,0-6.271,0.259-9.438,0.646c-5.624-65.422-60.832-111.257-121.6-111.321C120.372,0.641,69.172,52.487,64.646,111.574
	C28.186,116.617,0,148.035,0,185.918c0,41.438,33.681,75.119,75.119,75.119h19.717c6.271,46.028,45.64,81.584,93.349,81.584
	c14.545,0,28.186-3.426,40.469-9.244l49.972,49.972c10.214,10.343,30.448,13.705,44.606,0c12.283-12.283,12.283-32.323,0-44.606
	l-49.972-49.972c4.073-8.663,6.982-18.036,8.339-27.798h35.879v0.065H317.414z M21.786,185.918
	c0-29.349,23.855-53.333,53.333-53.333c6.012,0,10.925-4.848,10.925-10.796v-0.065h21.851c6.012,0,10.925-4.848,10.925-10.925
	c0-6.012-4.848-10.925-10.925-10.925H88.63c1.616-6.788,3.879-13.188,6.723-19.394h37.172c6.012,0,10.925-4.848,10.925-10.925
	c0-6.012-4.848-10.925-10.925-10.925h-23.273c19.329-23.273,48.162-37.624,77.059-36.784
	c53.915,0.129,101.236,43.055,100.331,102.788c-0.323,6.335,5.818,12.929,14.287,10.602c5.43-1.745,10.925-2.651,16.485-2.651
	c29.35,0,53.333,23.855,53.333,53.333s-23.855,53.333-53.333,53.333h-35.491c-4.655-47.774-44.865-85.139-93.802-85.139
	s-89.147,37.301-93.802,85.075H75.184C45.77,239.251,21.786,215.267,21.786,185.918z M115.588,248.366
	c0-39.952,32.517-72.469,72.469-72.469s72.469,32.517,72.469,72.469s-32.517,72.469-72.469,72.469S115.588,288.318,115.588,248.366z
	 M307.782,354.257c3.814,3.814,3.814,9.956,0,13.705c-3.814,3.814-9.956,3.814-13.705,0l-46.545-46.545
	c5.042-4.073,9.568-8.663,13.705-13.705L307.782,354.257z"/>
<path style="fill:#FFFFFF;" d="M188.121,175.833c-40.016,0-72.469,32.453-72.469,72.469s32.453,72.469,72.469,72.469
	s72.469-32.453,72.469-72.469S228.202,175.833,188.121,175.833z M188.121,299.501c-28.25,0-51.135-22.885-51.135-51.135
	c0-28.251,22.885-51.135,51.135-51.135s51.135,22.885,51.135,51.135C239.321,276.617,216.436,299.501,188.121,299.501z"/>
<circle style="fill:#FFC10D;" cx="188.121" cy="248.366" r="51.135"/>
</svg>